<?xml version="1.0" ?><svg data-name="Layer 1" id="Layer_1" viewBox="0 0 32 32" xmlns="http://www.w3.org/2000/svg"><path d="M27,22H11a1,1,0,0,1-.94-.67L4.29,5H1A1,1,0,0,1,1,3H5a1,1,0,0,1,.94.67L11.71,20H26.28L30.05,8.68a1,1,0,1,1,1.9.64l-4,12A1,1,0,0,1,27,22Z"/><path d="M28,10H10a1,1,0,0,1,0-2H28a1,1,0,0,1,0,2Z"/><path d="M26,14H12a1,1,0,0,1,0-2H26a1,1,0,0,1,0,2Z"/><path d="M25,18H13a1,1,0,0,1,0-2H25a1,1,0,0,1,0,2Z"/><path d="M25,29a3,3,0,1,1,3-3A3,3,0,0,1,25,29Zm0-4a1,1,0,1,0,1,1A1,1,0,0,0,25,25Z"/><path d="M13,29a3,3,0,1,1,3-3A3,3,0,0,1,13,29Zm0-4a1,1,0,1,0,1,1A1,1,0,0,0,13,25Z"/></svg>